<?xml version="1.0" encoding="iso-8859-1"?>
<!-- Generator: Adobe Illustrator 19.0.0, SVG Export Plug-In . SVG Version: 6.00 Build 0)  -->
<svg version="1.1" id="Layer_1" xmlns="http://www.w3.org/2000/svg" xmlns:xlink="http://www.w3.org/1999/xlink" x="0px" y="0px"
	 viewBox="0 0 512.687 512.687" style="enable-background:new 0 0 512.687 512.687;" xml:space="preserve">
<g transform="translate(0 1)">
	<path style="fill:#FFFFFF;" d="M393.22,59.077h-17.067v102.4H316.42v-102.4H120.154c-32.427,0-59.733,26.453-59.733,59.733v230.4
		h392.533v-230.4C452.954,85.53,426.5,59.077,393.22,59.077L393.22,59.077z"/>
	<path style="fill:#0096E6;" d="M461.487,357.743h-409.6V118.81c0-37.547,30.72-68.267,68.267-68.267h204.8v102.4h42.667v-102.4
		h25.6c37.547,0,68.267,30.72,68.267,68.267V357.743z M68.954,340.677H444.42V118.81c0-28.16-23.04-51.2-51.2-51.2h-8.533v102.4
		h-76.8V67.61H120.154c-28.16,0-51.2,23.04-51.2,51.2V340.677z"/>
	<path style="fill:#D0E8F9;" d="M501.594,477.21H11.78c-1.707,0-2.56-0.853-2.56-2.56v-71.68c0-1.707,0.853-2.56,2.56-2.56h489.813
		c1.707,0,2.56,0.853,2.56,2.56v71.68C504.154,476.357,503.3,477.21,501.594,477.21L501.594,477.21z"/>
	<path style="fill:#0096E6;" d="M501.594,485.744H11.78c-5.973,0-11.093-5.12-11.093-11.093v-71.68
		c0-5.973,5.12-11.093,11.093-11.093h489.813c5.973,0,11.093,5.12,11.093,11.093v71.68
		C512.687,480.624,507.567,485.744,501.594,485.744z M17.754,468.677H495.62v-59.733H17.754V468.677z"/>
	<path style="fill:#FFFFFF;" d="M503.3,400.41H10.074c-0.853,0-0.853-1.707-0.853-1.707l49.493-49.493H454.66l49.493,49.493
		C504.154,398.704,504.154,400.41,503.3,400.41L503.3,400.41z"/>
	<g>
		<path style="fill:#0096E6;" d="M503.3,408.944H10.074c-4.267,0-7.68-2.56-9.387-5.973c-1.707-3.413,0-7.68,2.56-11.093l51.2-51.2
			H457.22l51.2,51.2c2.56,2.56,3.413,6.827,1.707,10.24C510.127,406.384,506.714,408.944,503.3,408.944z M498.18,404.677
			L498.18,404.677L498.18,404.677z M27.994,391.877H485.38l-34.133-34.133H62.127L27.994,391.877z"/>
		<path style="fill:#0096E6;" d="M290.82,451.61h-68.267c-14.507,0-25.6-11.093-25.6-25.6c0-5.12,3.413-8.533,8.533-8.533
			c5.12,0,8.533,3.413,8.533,8.533c0,5.12,3.413,8.533,8.533,8.533h68.267c5.12,0,8.533-3.413,8.533-8.533
			c0-5.12,3.413-8.533,8.533-8.533c5.12,0,8.533,3.413,8.533,8.533C316.42,440.517,305.327,451.61,290.82,451.61z"/>
		<path style="fill:#0096E6;" d="M103.087,204.144c0,5.12-3.413,8.533-8.533,8.533s-8.533-3.413-8.533-8.533
			c0-5.12,3.413-8.533,8.533-8.533S103.087,199.023,103.087,204.144"/>
		<path style="fill:#0096E6;" d="M137.22,204.144c0,5.12-3.413,8.533-8.533,8.533c-5.12,0-8.533-3.413-8.533-8.533
			c0-5.12,3.413-8.533,8.533-8.533C133.807,195.61,137.22,199.023,137.22,204.144"/>
		<path style="fill:#0096E6;" d="M137.22,238.277c0,5.12-3.413,8.533-8.533,8.533c-5.12,0-8.533-3.413-8.533-8.533
			c0-5.12,3.413-8.533,8.533-8.533C133.807,229.743,137.22,233.157,137.22,238.277"/>
		<path style="fill:#0096E6;" d="M103.087,238.277c0,5.12-3.413,8.533-8.533,8.533s-8.533-3.413-8.533-8.533
			c0-5.12,3.413-8.533,8.533-8.533S103.087,233.157,103.087,238.277"/>
		<path style="fill:#0096E6;" d="M103.087,272.41c0,5.12-3.413,8.533-8.533,8.533s-8.533-3.413-8.533-8.533
			c0-5.12,3.413-8.533,8.533-8.533S103.087,267.29,103.087,272.41"/>
		<path style="fill:#0096E6;" d="M137.22,272.41c0,5.12-3.413,8.533-8.533,8.533c-5.12,0-8.533-3.413-8.533-8.533
			c0-5.12,3.413-8.533,8.533-8.533C133.807,263.877,137.22,267.29,137.22,272.41"/>
		<path style="fill:#0096E6;" d="M137.22,306.544c0,5.12-3.413,8.533-8.533,8.533c-5.12,0-8.533-3.413-8.533-8.533
			c0-5.12,3.413-8.533,8.533-8.533C133.807,298.01,137.22,301.423,137.22,306.544"/>
		<path style="fill:#0096E6;" d="M103.087,306.544c0,5.12-3.413,8.533-8.533,8.533s-8.533-3.413-8.533-8.533
			c0-5.12,3.413-8.533,8.533-8.533S103.087,301.423,103.087,306.544"/>
		<path style="fill:#0096E6;" d="M171.354,204.144c0,5.12-3.413,8.533-8.533,8.533s-8.533-3.413-8.533-8.533
			c0-5.12,3.413-8.533,8.533-8.533S171.354,199.023,171.354,204.144"/>
		<path style="fill:#0096E6;" d="M205.487,204.144c0,5.12-3.413,8.533-8.533,8.533c-5.12,0-8.533-3.413-8.533-8.533
			c0-5.12,3.413-8.533,8.533-8.533C202.074,195.61,205.487,199.023,205.487,204.144"/>
		<path style="fill:#0096E6;" d="M205.487,238.277c0,5.12-3.413,8.533-8.533,8.533c-5.12,0-8.533-3.413-8.533-8.533
			c0-5.12,3.413-8.533,8.533-8.533C202.074,229.743,205.487,233.157,205.487,238.277"/>
		<path style="fill:#0096E6;" d="M171.354,238.277c0,5.12-3.413,8.533-8.533,8.533s-8.533-3.413-8.533-8.533
			c0-5.12,3.413-8.533,8.533-8.533S171.354,233.157,171.354,238.277"/>
		<path style="fill:#0096E6;" d="M171.354,272.41c0,5.12-3.413,8.533-8.533,8.533s-8.533-3.413-8.533-8.533
			c0-5.12,3.413-8.533,8.533-8.533S171.354,267.29,171.354,272.41"/>
		<path style="fill:#0096E6;" d="M205.487,272.41c0,5.12-3.413,8.533-8.533,8.533c-5.12,0-8.533-3.413-8.533-8.533
			c0-5.12,3.413-8.533,8.533-8.533C202.074,263.877,205.487,267.29,205.487,272.41"/>
		<path style="fill:#0096E6;" d="M205.487,306.544c0,5.12-3.413,8.533-8.533,8.533c-5.12,0-8.533-3.413-8.533-8.533
			c0-5.12,3.413-8.533,8.533-8.533C202.074,298.01,205.487,301.423,205.487,306.544"/>
		<path style="fill:#0096E6;" d="M171.354,306.544c0,5.12-3.413,8.533-8.533,8.533s-8.533-3.413-8.533-8.533
			c0-5.12,3.413-8.533,8.533-8.533S171.354,301.423,171.354,306.544"/>
		<path style="fill:#0096E6;" d="M324.954,204.144c0,5.12-3.413,8.533-8.533,8.533c-5.12,0-8.533-3.413-8.533-8.533
			c0-5.12,3.413-8.533,8.533-8.533C321.54,195.61,324.954,199.023,324.954,204.144"/>
		<path style="fill:#0096E6;" d="M359.087,204.144c0,5.12-3.413,8.533-8.533,8.533c-5.12,0-8.533-3.413-8.533-8.533
			c0-5.12,3.413-8.533,8.533-8.533C355.674,195.61,359.087,199.023,359.087,204.144"/>
		<path style="fill:#0096E6;" d="M359.087,238.277c0,5.12-3.413,8.533-8.533,8.533c-5.12,0-8.533-3.413-8.533-8.533
			c0-5.12,3.413-8.533,8.533-8.533C355.674,229.743,359.087,233.157,359.087,238.277"/>
		<path style="fill:#0096E6;" d="M324.954,238.277c0,5.12-3.413,8.533-8.533,8.533c-5.12,0-8.533-3.413-8.533-8.533
			c0-5.12,3.413-8.533,8.533-8.533C321.54,229.743,324.954,233.157,324.954,238.277"/>
		<path style="fill:#0096E6;" d="M324.954,272.41c0,5.12-3.413,8.533-8.533,8.533c-5.12,0-8.533-3.413-8.533-8.533
			c0-5.12,3.413-8.533,8.533-8.533C321.54,263.877,324.954,267.29,324.954,272.41"/>
		<path style="fill:#0096E6;" d="M359.087,272.41c0,5.12-3.413,8.533-8.533,8.533c-5.12,0-8.533-3.413-8.533-8.533
			c0-5.12,3.413-8.533,8.533-8.533C355.674,263.877,359.087,267.29,359.087,272.41"/>
		<path style="fill:#0096E6;" d="M359.087,306.544c0,5.12-3.413,8.533-8.533,8.533c-5.12,0-8.533-3.413-8.533-8.533
			c0-5.12,3.413-8.533,8.533-8.533C355.674,298.01,359.087,301.423,359.087,306.544"/>
		<path style="fill:#0096E6;" d="M324.954,306.544c0,5.12-3.413,8.533-8.533,8.533c-5.12,0-8.533-3.413-8.533-8.533
			c0-5.12,3.413-8.533,8.533-8.533C321.54,298.01,324.954,301.423,324.954,306.544"/>
		<path style="fill:#0096E6;" d="M393.22,204.144c0,5.12-3.413,8.533-8.533,8.533s-8.533-3.413-8.533-8.533
			c0-5.12,3.413-8.533,8.533-8.533S393.22,199.023,393.22,204.144"/>
		<path style="fill:#0096E6;" d="M427.354,204.144c0,5.12-3.413,8.533-8.533,8.533s-8.533-3.413-8.533-8.533
			c0-5.12,3.413-8.533,8.533-8.533S427.354,199.023,427.354,204.144"/>
		<path style="fill:#0096E6;" d="M427.354,238.277c0,5.12-3.413,8.533-8.533,8.533s-8.533-3.413-8.533-8.533
			c0-5.12,3.413-8.533,8.533-8.533S427.354,233.157,427.354,238.277"/>
		<path style="fill:#0096E6;" d="M393.22,238.277c0,5.12-3.413,8.533-8.533,8.533s-8.533-3.413-8.533-8.533
			c0-5.12,3.413-8.533,8.533-8.533S393.22,233.157,393.22,238.277"/>
		<path style="fill:#0096E6;" d="M393.22,272.41c0,5.12-3.413,8.533-8.533,8.533s-8.533-3.413-8.533-8.533
			c0-5.12,3.413-8.533,8.533-8.533S393.22,267.29,393.22,272.41"/>
		<path style="fill:#0096E6;" d="M427.354,272.41c0,5.12-3.413,8.533-8.533,8.533s-8.533-3.413-8.533-8.533
			c0-5.12,3.413-8.533,8.533-8.533S427.354,267.29,427.354,272.41"/>
		<path style="fill:#0096E6;" d="M427.354,306.544c0,5.12-3.413,8.533-8.533,8.533s-8.533-3.413-8.533-8.533
			c0-5.12,3.413-8.533,8.533-8.533S427.354,301.423,427.354,306.544"/>
		<path style="fill:#0096E6;" d="M393.22,306.544c0,5.12-3.413,8.533-8.533,8.533s-8.533-3.413-8.533-8.533
			c0-5.12,3.413-8.533,8.533-8.533S393.22,301.423,393.22,306.544"/>
		<path style="fill:#0096E6;" d="M282.287,315.077h-51.2c-5.12,0-8.533-3.413-8.533-8.533c0-5.12,3.413-8.533,8.533-8.533h51.2
			c5.12,0,8.533,3.413,8.533,8.533C290.82,311.663,287.407,315.077,282.287,315.077z M282.287,280.944h-51.2
			c-5.12,0-8.533-3.413-8.533-8.533c0-5.12,3.413-8.533,8.533-8.533h51.2c5.12,0,8.533,3.413,8.533,8.533
			C290.82,277.53,287.407,280.944,282.287,280.944z M282.287,246.81h-51.2c-5.12,0-8.533-3.413-8.533-8.533
			c0-5.12,3.413-8.533,8.533-8.533h51.2c5.12,0,8.533,3.413,8.533,8.533C290.82,243.397,287.407,246.81,282.287,246.81z
			 M282.287,212.677h-51.2c-5.12,0-8.533-3.413-8.533-8.533c0-5.12,3.413-8.533,8.533-8.533h51.2c5.12,0,8.533,3.413,8.533,8.533
			C290.82,209.264,287.407,212.677,282.287,212.677z"/>
	</g>
	<polygon style="fill:#FFFFFF;" points="316.42,33.477 376.154,33.477 376.154,161.477 316.42,161.477 	"/>
	<path style="fill:#0096E6;" d="M384.687,170.01h-76.8V24.943h76.8V170.01z M324.954,152.943h42.667V42.01h-42.667V152.943z"/>
	<path style="fill:#D0E8F9;" d="M127.834,93.21c-17.92,0-33.28,15.36-33.28,33.28v34.987H316.42V93.21H127.834L127.834,93.21z"/>
	<path style="fill:#0096E6;" d="M324.954,170.01H86.02v-43.52c0-23.04,18.773-41.813,41.813-41.813h197.12V170.01z M103.087,152.943
		h204.8v-51.2H127.834c-13.653,0-24.747,11.093-24.747,24.747V152.943z"/>
	<path style="fill:#D0E8F9;" d="M385.54,93.21h-9.387v68.267h42.667V126.49C418.82,108.57,403.46,93.21,385.54,93.21L385.54,93.21z"
		/>
	<g>
		<path style="fill:#0096E6;" d="M427.354,170.01H367.62V84.677h17.92c23.04,0,41.813,18.773,41.813,41.813V170.01z
			 M384.687,152.943h25.6V126.49c0-13.653-11.093-24.747-24.747-24.747h-0.853V152.943z"/>
		<path style="fill:#0096E6;" d="M350.554,144.41h-8.533c-5.12,0-8.533-3.413-8.533-8.533c0-5.12,3.413-8.533,8.533-8.533h8.533
			c5.12,0,8.533,3.413,8.533,8.533C359.087,140.997,355.674,144.41,350.554,144.41z M350.554,110.277h-8.533
			c-5.12,0-8.533-3.413-8.533-8.533s3.413-8.533,8.533-8.533h8.533c5.12,0,8.533,3.413,8.533,8.533S355.674,110.277,350.554,110.277
			z M350.554,76.143h-8.533c-5.12,0-8.533-3.413-8.533-8.533s3.413-8.533,8.533-8.533h8.533c5.12,0,8.533,3.413,8.533,8.533
			S355.674,76.143,350.554,76.143z"/>
	</g>
</g>
<g>
</g>
<g>
</g>
<g>
</g>
<g>
</g>
<g>
</g>
<g>
</g>
<g>
</g>
<g>
</g>
<g>
</g>
<g>
</g>
<g>
</g>
<g>
</g>
<g>
</g>
<g>
</g>
<g>
</g>
</svg>
